<svg width="1024" height="1024" viewBox="0 0 1024 1024" fill="none" xmlns="http://www.w3.org/2000/svg">
<rect width="1024" height="1024" rx="210" fill="#1B1B1B"/>
<path d="M341.654 178H288C238.294 178 198 218.294 198 268V344.256" stroke="white" stroke-width="69" stroke-linecap="round"/>
<path d="M681.98 178H735.634C785.34 178 825.634 218.294 825.634 268V344.256" stroke="white" stroke-width="69" stroke-linecap="round"/>
<path d="M682.346 846.294H736C785.706 846.294 826 806 826 756.294V680.039" stroke="white" stroke-width="69" stroke-linecap="round"/>
<path d="M341.654 846.294H288C238.294 846.294 198 806 198 756.294V680.039" stroke="white" stroke-width="69" stroke-linecap="round"/>
<path fill-rule="evenodd" clip-rule="evenodd" d="M702.708 545.571H322.292C312.781 545.571 305 553.238 305 562.607V596.679C305 601.197 306.822 605.53 310.065 608.725C313.307 611.919 317.706 613.714 322.292 613.714H702.708C707.294 613.714 711.693 611.919 714.935 608.725C718.178 605.53 720 601.197 720 596.679V562.607C720 558.089 718.178 553.756 714.935 550.561C711.693 547.366 707.294 545.571 702.708 545.571ZM702.708 409.286H322.292C312.781 409.286 305 416.952 305 426.321V460.393C305 464.911 306.822 469.244 310.065 472.439C313.307 475.634 317.706 477.429 322.292 477.429H702.708C707.294 477.429 711.693 475.634 714.935 472.439C718.178 469.244 720 464.911 720 460.393V426.321C720 421.803 718.178 417.47 714.935 414.275C711.693 411.081 707.294 409.286 702.708 409.286ZM529.792 681.857H322.292C312.781 681.857 305 689.523 305 698.893V732.964C305 737.482 306.822 741.816 310.065 745.01C313.307 748.205 317.706 750 322.292 750H529.792C534.378 750 538.776 748.205 542.019 745.01C545.262 741.816 547.083 737.482 547.083 732.964V698.893C547.083 694.375 545.262 690.042 542.019 686.847C538.776 683.652 534.378 681.857 529.792 681.857ZM702.708 273H322.292C312.781 273 305 280.666 305 290.036V324.107C305 328.625 306.822 332.958 310.065 336.153C313.307 339.348 317.706 341.143 322.292 341.143H702.708C707.294 341.143 711.693 339.348 714.935 336.153C718.178 332.958 720 328.625 720 324.107V290.036C720 285.518 718.178 281.184 714.935 277.99C711.693 274.795 707.294 273 702.708 273Z" fill="white"/>
</svg>
