<svg width="378" height="66" viewBox="0 0 378 66" fill="none" xmlns="http://www.w3.org/2000/svg">
<path fill-rule="evenodd" clip-rule="evenodd" d="M34.5 45.2857H1.5C0.675 45.2857 0 46.025 0 46.9286V50.2143C0 50.65 0.158036 51.0679 0.43934 51.376C0.720645 51.6841 1.10218 51.8571 1.5 51.8571H34.5C34.8978 51.8571 35.2794 51.6841 35.5607 51.376C35.842 51.0679 36 50.65 36 50.2143V46.9286C36 46.4929 35.842 46.075 35.5607 45.7669C35.2794 45.4588 34.8978 45.2857 34.5 45.2857ZM34.5 32.1429H1.5C0.675 32.1429 0 32.8821 0 33.7857V37.0714C0 37.5071 0.158036 37.925 0.43934 38.2331C0.720645 38.5412 1.10218 38.7143 1.5 38.7143H34.5C34.8978 38.7143 35.2794 38.5412 35.5607 38.2331C35.842 37.925 36 37.5071 36 37.0714V33.7857C36 33.35 35.842 32.9321 35.5607 32.624C35.2794 32.3159 34.8978 32.1429 34.5 32.1429ZM19.5 58.4286H1.5C0.675 58.4286 0 59.1679 0 60.0714V63.3571C0 63.7929 0.158036 64.2107 0.43934 64.5188C0.720645 64.8269 1.10218 65 1.5 65H19.5C19.8978 65 20.2794 64.8269 20.5607 64.5188C20.842 64.2107 21 63.7929 21 63.3571V60.0714C21 59.6357 20.842 59.2178 20.5607 58.9098C20.2794 58.6017 19.8978 58.4286 19.5 58.4286ZM34.5 19H1.5C0.675 19 0 19.7393 0 20.6429V23.9286C0 24.3643 0.158036 24.7822 0.43934 25.0902C0.720645 25.3983 1.10218 25.5714 1.5 25.5714H34.5C34.8978 25.5714 35.2794 25.3983 35.5607 25.0902C35.842 24.7822 36 24.3643 36 23.9286V20.6429C36 20.2071 35.842 19.7893 35.5607 19.4812C35.2794 19.1731 34.8978 19 34.5 19Z" fill="#1B1B1B"/>
<path d="M69.904 65.512C68.5813 65.512 67.5573 65.1493 66.832 64.424C66.1493 63.656 65.808 62.6107 65.808 61.288V26.728H53.328C52.2187 26.728 51.344 26.4293 50.704 25.832C50.1067 25.192 49.808 24.3387 49.808 23.272C49.808 22.1627 50.1067 21.3307 50.704 20.776C51.344 20.1787 52.2187 19.88 53.328 19.88H86.48C87.5893 19.88 88.4427 20.1787 89.04 20.776C89.68 21.3307 90 22.1627 90 23.272C90 24.3387 89.68 25.192 89.04 25.832C88.4427 26.4293 87.5893 26.728 86.48 26.728H74V61.288C74 62.6107 73.6587 63.656 72.976 64.424C72.2933 65.1493 71.2693 65.512 69.904 65.512ZM104.334 65.64C100.793 65.64 97.742 64.9787 95.182 63.656C92.622 62.3333 90.638 60.456 89.23 58.024C87.8647 55.592 87.182 52.712 87.182 49.384C87.182 46.1413 87.8433 43.304 89.166 40.872C90.5313 38.44 92.3873 36.5413 94.734 35.176C97.1233 33.768 99.8327 33.064 102.862 33.064C105.081 33.064 107.065 33.4267 108.814 34.152C110.606 34.8773 112.121 35.9227 113.358 37.288C114.638 38.6533 115.598 40.3173 116.238 42.28C116.921 44.2 117.262 46.376 117.262 48.808C117.262 49.576 116.985 50.1733 116.43 50.6C115.918 50.984 115.171 51.176 114.19 51.176H93.646V46.568H111.63L110.606 47.528C110.606 45.5653 110.307 43.9227 109.71 42.6C109.155 41.2773 108.323 40.2747 107.214 39.592C106.147 38.8667 104.803 38.504 103.182 38.504C101.39 38.504 99.854 38.9307 98.574 39.784C97.3367 40.5947 96.3767 41.768 95.694 43.304C95.054 44.7973 94.734 46.5893 94.734 48.68V49.128C94.734 52.6267 95.5447 55.2507 97.166 57C98.83 58.7067 101.262 59.56 104.462 59.56C105.571 59.56 106.809 59.432 108.174 59.176C109.582 58.8773 110.905 58.3867 112.142 57.704C113.038 57.192 113.827 56.9787 114.51 57.064C115.193 57.1067 115.726 57.3413 116.11 57.768C116.537 58.1947 116.793 58.728 116.878 59.368C116.963 59.9653 116.835 60.584 116.494 61.224C116.195 61.864 115.662 62.4187 114.894 62.888C113.401 63.8267 111.673 64.5307 109.71 65C107.79 65.4267 105.998 65.64 104.334 65.64ZM125.586 65.32C124.647 65.32 123.858 65.064 123.218 64.552C122.621 63.9973 122.301 63.2933 122.258 62.44C122.258 61.5867 122.621 60.6907 123.346 59.752L133.714 46.952V50.728L123.986 38.76C123.218 37.8213 122.855 36.9253 122.898 36.072C122.941 35.2187 123.261 34.536 123.858 34.024C124.498 33.4693 125.287 33.192 126.226 33.192C127.207 33.192 128.018 33.3627 128.658 33.704C129.341 34.0453 129.959 34.5787 130.514 35.304L138.194 45.16H135.378L143.122 35.304C143.719 34.5787 144.338 34.0453 144.978 33.704C145.618 33.3627 146.407 33.192 147.346 33.192C148.327 33.192 149.117 33.4693 149.714 34.024C150.311 34.5787 150.61 35.2827 150.61 36.136C150.653 36.9893 150.29 37.8853 149.522 38.824L139.858 50.664V47.08L150.226 59.752C150.994 60.648 151.357 61.5227 151.314 62.376C151.271 63.2293 150.93 63.9333 150.29 64.488C149.693 65.0427 148.903 65.32 147.922 65.32C146.983 65.32 146.194 65.1493 145.554 64.808C144.914 64.4667 144.295 63.9333 143.698 63.208L135.378 52.712H138.066L129.81 63.208C129.255 63.8907 128.658 64.424 128.018 64.808C127.378 65.1493 126.567 65.32 125.586 65.32ZM172.684 65.64C169.91 65.64 167.585 65.1707 165.708 64.232C163.873 63.2933 162.508 61.928 161.612 60.136C160.716 58.3013 160.268 56.04 160.268 53.352V39.72H156.94C155.916 39.72 155.126 39.464 154.572 38.952C154.017 38.3973 153.739 37.6507 153.739 36.712C153.739 35.7307 154.017 34.984 154.572 34.472C155.126 33.96 155.916 33.704 156.94 33.704H160.268V27.88C160.268 26.5573 160.609 25.5547 161.292 24.872C162.017 24.1893 163.02 23.848 164.3 23.848C165.58 23.848 166.561 24.1893 167.244 24.872C167.926 25.5547 168.268 26.5573 168.268 27.88V33.704H175.052C176.076 33.704 176.865 33.96 177.42 34.472C177.974 34.984 178.252 35.7307 178.252 36.712C178.252 37.6507 177.974 38.3973 177.42 38.952C176.865 39.464 176.076 39.72 175.052 39.72H168.268V52.904C168.268 54.952 168.716 56.488 169.612 57.512C170.508 58.536 171.958 59.048 173.964 59.048C174.689 59.048 175.329 58.984 175.884 58.856C176.438 58.728 176.929 58.6427 177.356 58.6C177.868 58.5573 178.294 58.728 178.636 59.112C178.977 59.4533 179.148 60.1787 179.148 61.288C179.148 62.1413 178.998 62.9093 178.7 63.592C178.444 64.232 177.953 64.68 177.228 64.936C176.673 65.1067 175.948 65.256 175.052 65.384C174.156 65.5547 173.366 65.64 172.684 65.64ZM187.838 65C186.515 65 185.491 64.6373 184.766 63.912C184.041 63.144 183.678 62.0987 183.678 60.776V23.848C183.678 22.4827 184.019 21.4587 184.702 20.776C185.427 20.0507 186.451 19.688 187.774 19.688C189.097 19.688 190.099 20.0507 190.782 20.776C191.507 21.4587 191.87 22.4827 191.87 23.848V58.024H210.43C211.582 58.024 212.457 58.3227 213.054 58.92C213.694 59.5173 214.014 60.3707 214.014 61.48C214.014 62.5893 213.694 63.464 213.054 64.104C212.457 64.7013 211.582 65 210.43 65H187.838ZM222.816 65.448C221.536 65.448 220.554 65.064 219.872 64.296C219.189 63.528 218.848 62.4613 218.848 61.096V37.608C218.848 36.2 219.189 35.1333 219.872 34.408C220.554 33.64 221.536 33.256 222.816 33.256C224.096 33.256 225.077 33.64 225.76 34.408C226.485 35.1333 226.848 36.2 226.848 37.608V61.096C226.848 62.4613 226.506 63.528 225.824 64.296C225.141 65.064 224.138 65.448 222.816 65.448ZM222.816 27.304C221.322 27.304 220.149 26.9413 219.296 26.216C218.485 25.448 218.08 24.4027 218.08 23.08C218.08 21.7147 218.485 20.6693 219.296 19.944C220.149 19.2187 221.322 18.856 222.816 18.856C224.352 18.856 225.525 19.2187 226.336 19.944C227.146 20.6693 227.552 21.7147 227.552 23.08C227.552 24.4027 227.146 25.448 226.336 26.216C225.525 26.9413 224.352 27.304 222.816 27.304ZM239.128 65.512C237.848 65.512 236.867 65.1707 236.184 64.488C235.501 63.7627 235.16 62.7387 235.16 61.416V37.224C235.16 35.9013 235.501 34.8987 236.184 34.216C236.867 33.5333 237.827 33.192 239.064 33.192C240.301 33.192 241.261 33.5333 241.944 34.216C242.627 34.8987 242.968 35.9013 242.968 37.224V41.576L242.264 39.976C243.203 37.7147 244.653 36.008 246.616 34.856C248.621 33.6613 250.883 33.064 253.4 33.064C255.917 33.064 257.987 33.5333 259.608 34.472C261.229 35.4107 262.445 36.84 263.256 38.76C264.067 40.6373 264.472 43.0267 264.472 45.928V61.416C264.472 62.7387 264.131 63.7627 263.448 64.488C262.765 65.1707 261.784 65.512 260.504 65.512C259.224 65.512 258.221 65.1707 257.496 64.488C256.813 63.7627 256.472 62.7387 256.472 61.416V46.312C256.472 43.88 256.003 42.1093 255.064 41C254.168 39.8907 252.76 39.336 250.84 39.336C248.493 39.336 246.616 40.0827 245.208 41.576C243.843 43.0267 243.16 44.968 243.16 47.4V61.416C243.16 64.1467 241.816 65.512 239.128 65.512ZM276.566 65.512C275.286 65.512 274.304 65.1707 273.622 64.488C272.939 63.7627 272.598 62.7387 272.598 61.416V23.4C272.598 22.0773 272.939 21.0747 273.622 20.392C274.304 19.7093 275.286 19.368 276.566 19.368C277.846 19.368 278.827 19.7093 279.51 20.392C280.235 21.0747 280.598 22.0773 280.598 23.4V47.016H280.726L291.286 35.88C292.139 35.0267 292.886 34.3653 293.526 33.896C294.166 33.4267 295.04 33.192 296.15 33.192C297.259 33.192 298.091 33.4907 298.646 34.088C299.243 34.6427 299.542 35.3253 299.542 36.136C299.542 36.9467 299.158 37.7573 298.39 38.568L287.253 50.344V47.016L299.478 60.2C300.246 61.0107 300.587 61.8427 300.502 62.696C300.459 63.5067 300.118 64.1893 299.478 64.744C298.838 65.256 298.027 65.512 297.046 65.512C295.851 65.512 294.891 65.2773 294.166 64.808C293.483 64.3387 292.715 63.6347 291.862 62.696L280.726 51.048H280.598V61.416C280.598 64.1467 279.254 65.512 276.566 65.512ZM321.709 65.64C318.168 65.64 315.117 64.9787 312.557 63.656C309.997 62.3333 308.013 60.456 306.605 58.024C305.24 55.592 304.557 52.712 304.557 49.384C304.557 46.1413 305.218 43.304 306.541 40.872C307.906 38.44 309.762 36.5413 312.109 35.176C314.498 33.768 317.208 33.064 320.237 33.064C322.456 33.064 324.44 33.4267 326.189 34.152C327.981 34.8773 329.496 35.9227 330.733 37.288C332.013 38.6533 332.973 40.3173 333.613 42.28C334.296 44.2 334.637 46.376 334.637 48.808C334.637 49.576 334.36 50.1733 333.805 50.6C333.293 50.984 332.546 51.176 331.565 51.176H311.021V46.568H329.005L327.981 47.528C327.981 45.5653 327.682 43.9227 327.085 42.6C326.53 41.2773 325.698 40.2747 324.589 39.592C323.522 38.8667 322.178 38.504 320.557 38.504C318.765 38.504 317.229 38.9307 315.949 39.784C314.712 40.5947 313.752 41.768 313.069 43.304C312.429 44.7973 312.109 46.5893 312.109 48.68V49.128C312.109 52.6267 312.92 55.2507 314.541 57C316.205 58.7067 318.637 59.56 321.837 59.56C322.946 59.56 324.184 59.432 325.549 59.176C326.957 58.8773 328.28 58.3867 329.517 57.704C330.413 57.192 331.202 56.9787 331.885 57.064C332.568 57.1067 333.101 57.3413 333.485 57.768C333.912 58.1947 334.168 58.728 334.253 59.368C334.338 59.9653 334.21 60.584 333.869 61.224C333.57 61.864 333.037 62.4187 332.269 62.888C330.776 63.8267 329.048 64.5307 327.085 65C325.165 65.4267 323.373 65.64 321.709 65.64ZM345.069 65.512C343.746 65.512 342.722 65.1707 341.997 64.488C341.314 63.7627 340.973 62.7387 340.973 61.416V37.224C340.973 35.9013 341.314 34.8987 341.997 34.216C342.679 33.5333 343.639 33.192 344.877 33.192C346.114 33.192 347.074 33.5333 347.757 34.216C348.439 34.8987 348.781 35.9013 348.781 37.224V41.256H348.141C348.738 38.696 349.911 36.7547 351.661 35.432C353.41 34.1093 355.735 33.32 358.637 33.064C359.533 32.9787 360.237 33.2133 360.749 33.768C361.303 34.28 361.623 35.0907 361.709 36.2C361.794 37.2667 361.538 38.1413 360.941 38.824C360.386 39.464 359.533 39.848 358.381 39.976L356.973 40.104C354.37 40.36 352.407 41.1707 351.085 42.536C349.762 43.8587 349.101 45.736 349.101 48.168V61.416C349.101 62.7387 348.759 63.7627 348.077 64.488C347.394 65.1707 346.391 65.512 345.069 65.512Z" fill="#1B1B1B"/>
</svg>
